<?xml version="1.0" encoding="UTF-8" standalone="no"?>
<!-- Created with Inkscape (http://www.inkscape.org/) -->

<svg
   xmlns:dc="http://purl.org/dc/elements/1.1/"
   xmlns:cc="http://creativecommons.org/ns#"
   xmlns:rdf="http://www.w3.org/1999/02/22-rdf-syntax-ns#"
   xmlns:svg="http://www.w3.org/2000/svg"
   xmlns="http://www.w3.org/2000/svg"
   xmlns:sodipodi="http://sodipodi.sourceforge.net/DTD/sodipodi-0.dtd"
   xmlns:inkscape="http://www.inkscape.org/namespaces/inkscape"
   width="97.492958mm"
   height="117.07256mm"
   viewBox="0 0 345.44749 414.82404"
   id="svg2"
   version="1.1"
   inkscape:version="0.91 r13725"
   sodipodi:docname="copyright_beware.svg">
  <defs
     id="defs4" />
  <sodipodi:namedview
     id="base"
     pagecolor="#ffffff"
     bordercolor="#666666"
     borderopacity="1.0"
     inkscape:pageopacity="0.0"
     inkscape:pageshadow="2"
     inkscape:zoom="0.35"
     inkscape:cx="283.75837"
     inkscape:cy="-91.428585"
     inkscape:document-units="px"
     inkscape:current-layer="layer1"
     showgrid="false"
     fit-margin-top="0"
     fit-margin-left="0"
     fit-margin-right="0"
     fit-margin-bottom="0"
     inkscape:window-width="1280"
     inkscape:window-height="751"
     inkscape:window-x="0"
     inkscape:window-y="0"
     inkscape:window-maximized="1" />
  <metadata
     id="metadata7">
    <rdf:RDF>
      <cc:Work
         rdf:about="">
        <dc:format>image/svg+xml</dc:format>
        <dc:type
           rdf:resource="http://purl.org/dc/dcmitype/StillImage" />
        <dc:title></dc:title>
      </cc:Work>
    </rdf:RDF>
  </metadata>
  <g
     inkscape:label="Layer 1"
     inkscape:groupmode="layer"
     id="layer1"
     transform="translate(-91.241633,-26.109569)">
    <g
       style="font-style:normal;font-weight:normal;font-size:477.3795166px;line-height:125%;font-family:sans-serif;letter-spacing:0px;word-spacing:0px;fill:#000000;fill-opacity:1;stroke:none;stroke-width:1px;stroke-linecap:butt;stroke-linejoin:miter;stroke-opacity:1"
       id="text3336">
      <path
         d="m 333.66092,178.46813 0,50.11552 q -13.28644,-8.62453 -26.33979,-12.58715 -12.82025,-4.19572 -26.10669,-4.19572 -26.33979,0 -41.2579,14.91811 -14.68501,14.91811 -14.68501,41.49099 0,26.80598 14.68501,41.491 14.68502,14.68501 41.2579,14.68501 14.91811,0 28.20455,-4.19572 13.51954,-4.19572 24.24193,-12.35406 l 0,49.64934 q -15.15121,5.1281 -30.53551,7.92524 -15.1512,2.56405 -29.60312,2.56405 -49.18315,0 -78.78627,-27.27217 -29.60312,-27.27217 -29.60312,-72.49269 0,-45.45361 29.60312,-72.49269 29.60312,-27.27217 78.78627,-27.27217 16.08359,0 31.0017,2.56405 14.91811,2.33096 29.13693,7.45906 z m -69.69555,-47.78457 q -28.20455,0 -52.44648,10.2562 -24.24192,10.0231 -44.52123,30.30241 -20.27931,20.2793 -30.53551,44.52123 -10.0231,24.00884 -10.0231,52.44648 0,28.20455 10.0231,52.44648 10.2562,24.00884 30.53551,44.28814 20.04621,20.04621 44.28814,30.06932 24.47502,10.0231 52.67957,10.0231 28.67075,0 52.67958,-9.79001 24.00883,-10.0231 44.28814,-30.30241 20.2793,-20.2793 30.30241,-44.28814 10.2562,-24.24193 10.2562,-52.44648 0,-28.43764 -10.2562,-52.44648 -10.02311,-24.24193 -30.30241,-44.52123 -20.5124,-20.5124 -44.75433,-30.53551 -24.00883,-10.0231 -52.21339,-10.0231 z m 0,-35.896704 q 35.43051,0 65.96602,12.820254 30.7686,12.82025 56.17601,38.22765 25.4074,25.40741 37.99456,55.94292 12.58716,30.5355 12.58716,66.4322 0,35.43051 -12.58716,65.96602 -12.58716,30.30241 -37.99456,55.70982 -25.40741,25.4074 -56.17601,38.22765 -30.53551,12.82025 -65.96602,12.82025 -35.43051,0 -66.19911,-12.82025 -30.5355,-12.82025 -55.94291,-38.22765 -25.40741,-25.40741 -37.99456,-55.70982 -12.587157,-30.53551 -12.587157,-65.96602 0,-35.8967 12.587157,-66.4322 12.58715,-30.53551 37.99456,-55.94292 25.40741,-25.4074 55.94291,-38.22765 30.7686,-12.820254 66.19911,-12.820254 z"
         style="font-style:normal;font-variant:normal;font-weight:bold;font-stretch:normal;font-family:sans-serif;-inkscape-font-specification:'sans-serif Bold'"
         id="path3348"
         inkscape:connector-curvature="0" />
    </g>
    <g
       style="font-style:normal;font-weight:normal;font-size:533.82452393px;line-height:125%;font-family:sans-serif;letter-spacing:0px;word-spacing:0px;fill:#000000;fill-opacity:1;stroke:none;stroke-width:1px;stroke-linecap:butt;stroke-linejoin:miter;stroke-opacity:1"
       id="text3340">
      <path
         d="m 401.89489,305.27269 -19.8099,0 Q 376.87186,186.93463 365.66363,49.307998 393.03257,39.403051 418.57691,26.109569 l 7.55903,6.255756 Q 413.10312,130.11151 401.89489,305.27269 Z m -9.90495,46.91817 q 12.25086,0 20.59187,8.60166 8.341,8.34101 8.341,20.59187 0,11.9902 -8.60166,20.3312 -8.34101,8.60167 -20.33121,8.60167 -11.9902,0 -20.59186,-8.60167 -8.34101,-8.341 -8.34101,-20.3312 0,-12.25086 8.34101,-20.59187 8.60166,-8.60166 20.59186,-8.60166 z"
         style="font-style:normal;font-variant:normal;font-weight:normal;font-stretch:normal;font-family:'Calisto MT';-inkscape-font-specification:'Calisto MT';fill:#ff0000"
         id="path3345"
         inkscape:connector-curvature="0" />
    </g>
  </g>
</svg>
